<?xml version="1.0" encoding="UTF-8"?>
<svg xmlns="http://www.w3.org/2000/svg" width="140" height="35" viewBox="0 0 140 35" fill="none">
  <path d="M44.9526 13.9749C44.9526 11.5696 42.4645 9.00409 38.3175 9.00409C33.673 9.00409 28.3649 12.3714 27.5355 19.106C26.7062 25.8406 31.019 28.8872 35.4976 28.8872C39.9763 28.8872 42.1327 27.2837 44.455 25.0388C42.4645 22.6336 39.8104 23.7561 39.3128 23.9164C38.8152 24.2371 37.9858 24.5578 36.6588 24.5578C35 24.5578 33.1754 23.7561 33.1754 20.7095C44.1232 19.587 44.9526 16.3801 44.9526 13.9749ZM39.6446 14.2956C39.6446 15.0973 39.3128 16.3801 33.8389 17.0215C35 13.0128 37.1564 12.6921 38.1517 12.6921C39.1469 12.8524 39.6446 13.4938 39.6446 14.2956ZM21.2322 14.9369C21.2322 14.9369 18.91 21.9922 18.7441 22.6336C18.7441 21.9922 16.9194 9.32478 16.9194 9.32478C12.9384 9.32478 10.782 12.0507 9.78673 14.9369C9.78673 14.9369 6.96682 21.9922 6.80095 22.6336C6.63507 22.1526 6.30332 15.0973 6.30332 15.0973C5.97156 11.5696 2.65403 9.32478 0 9.32478L3.31754 28.5665C7.46445 28.5665 9.78673 25.8406 10.9479 22.9543C10.9479 22.9543 13.436 16.7008 13.6019 16.3801C13.6019 16.7008 15.4265 28.5665 15.4265 28.5665C19.5735 28.5665 21.8957 26.0009 23.0569 23.275L28.8626 9.32478C24.5498 9.32478 22.3934 12.0507 21.2322 14.9369ZM60.3791 8.84374C57.891 8.84374 55.9005 10.1265 54.2417 12.211L55.5687 0.666016C52.0853 0.666016 49.4313 3.55227 48.7678 7.72131L46.1137 28.4061C48.1043 28.4061 50.0948 27.9251 51.2559 26.482C52.2512 27.7648 53.7441 28.7268 55.9005 28.7268C61.7062 28.7268 65.6872 22.3129 65.6872 16.2197C65.8531 10.6076 63.0332 8.84374 60.3791 8.84374ZM59.7156 18.7853C59.0521 22.1526 57.2275 24.3975 55.237 24.3975C53.4123 24.3975 52.5829 23.5957 52.5829 23.5957C52.9147 20.7095 53.2464 18.7853 53.91 17.1818C54.5735 15.5783 56.2322 13.1731 57.891 13.1731C59.5498 13.3335 60.3791 15.418 59.7156 18.7853ZM80.2844 9.32478H76.3033V9.16444C76.6351 6.59888 77.1327 5.31609 79.2891 5.15575C80.6161 4.9954 81.2796 4.35401 81.4455 3.55227C81.6114 2.91088 81.9431 0.826363 81.9431 0.826363C73.8152 0.826363 71.327 4.19366 70.6635 9.32478V9.48513H70.4976C69.1706 9.48513 67.6777 10.9283 67.5118 12.6921L67.346 13.3335H70L67.6777 31.2924L67.0142 34.4994C67.1801 34.4994 67.1801 34.4994 67.346 34.4994C71.1611 34.339 73.4834 31.4527 74.1469 27.2837L75.9716 13.1731H77.2986C78.4597 13.1731 79.9526 12.0507 80.2844 9.96617V9.32478ZM101.185 9.00409C96.5403 9.00409 92.2275 12.3714 90.9005 17.5025C89.5735 22.6336 91.564 28.8872 98.3649 28.8872C105.166 28.8872 109.147 22.4733 109.147 17.1818C108.981 11.8903 105.332 9.00409 101.185 9.00409ZM103.009 18.6249C102.844 21.0302 101.682 24.5578 98.6967 24.5578C95.7109 24.5578 96.2085 20.3888 96.3744 18.4646C96.7062 16.3801 97.8673 13.3335 100.521 13.3335C103.009 13.3335 103.341 16.0594 103.009 18.6249ZM132.038 14.9369C132.038 14.9369 129.716 21.9922 129.55 22.6336C129.55 21.9922 127.725 9.32478 127.725 9.32478C123.744 9.32478 121.588 12.0507 120.592 14.9369C120.592 14.9369 117.773 21.9922 117.607 22.6336C117.607 22.1526 117.109 15.0973 117.109 15.0973C116.943 11.5696 113.46 9.48513 110.806 9.48513L114.123 28.7268C118.27 28.7268 120.592 26.0009 121.754 23.1147C121.754 23.1147 124.242 16.8611 124.408 16.5404C124.408 16.8611 126.232 28.7268 126.232 28.7268C130.379 28.7268 132.701 26.1613 133.863 23.4354L139.336 9.32478C135.19 9.32478 133.033 12.0507 132.038 14.9369ZM84.0995 0.826363L80.782 27.1234L80.1185 30.3303C80.2844 30.3303 80.2844 30.3303 80.4502 30.3303C84.0995 30.3303 86.7535 27.1234 87.0853 23.275L89.0758 8.20235C89.5735 3.71262 86.5877 0.826363 84.0995 0.826363Z" fill="#999999"></path>
</svg>
