<?xml version="1.0" encoding="UTF-8"?>
<svg xmlns="http://www.w3.org/2000/svg" width="131" height="56" viewBox="0 0 131 56" fill="none">
  <path fill-rule="evenodd" clip-rule="evenodd" d="M130.174 35.6579C124.726 44.8714 116.098 42.1979 113.506 40.1047C112.403 40.8511 110.469 42.4871 107.891 42.2982C102.399 41.8961 100.432 34.0681 100.432 34.0681C100.472 34.0994 98.7965 34.6447 97.8911 34.635C97.8794 36.9306 95.89 42.4144 90.5209 42.3442C84.496 42.2659 83.2711 33.3126 83.2711 33.3126C83.2711 33.3126 82.6716 34.143 80.3919 34.9702C80.5066 33.2065 80.4227 42.0757 73.2016 42.2061C67.4928 42.3093 65.9518 33.1745 65.9518 33.1745C65.9518 33.1745 64.9615 34.2007 63.0422 34.5566C63.1642 32.7642 62.9659 42.2363 55.7439 42.2061C50.8634 42.1859 49.1956 36.5791 49.3253 35.8009C49.4908 34.8092 47.6758 42.3456 42.9351 42.2282C40.9788 42.1709 39.5203 40.758 38.6051 38.8744C37.3799 40.2728 35.6011 42.2282 33.6057 42.2282C30.0238 42.2282 28.4447 39.2399 28.7121 30.7049C28.7349 29.6926 28.6617 29.2944 27.6528 29.143C27.0472 29.0422 26.4271 28.8514 25.7709 28.7508C25.5606 29.4508 23.7768 42.0005 17.6432 42.2386C15.5854 42.3186 14.4603 40.5405 13.5362 39.2209C12.1198 41.09 10.25 42.2982 7.5863 42.2982C3.07422 42.2982 0 38.6599 0 34.1718C0 29.6835 3.07422 26.0456 7.5863 26.0456C8.38408 26.0456 8.60804 26.1596 9.33686 26.3717C7.83801 12.7599 11.3777 10.6325 14.4741 10.6325C17.4469 10.6325 22.5256 17.5147 15.3795 34.9716C16.966 40.1785 20.3864 39.884 22.03 29.1652C22.3645 26.9864 21.47 24.0463 22.8613 23.6359C25.4045 22.886 25.6743 25.136 26.8668 25.5109C28.1276 25.9072 28.8636 25.8685 30.074 26.1206C32.1424 26.5235 32.9495 27.6318 32.6975 30.1002C32.3949 33.2235 31.8655 37.7694 33.4796 38.3235C34.6435 38.7259 36.7687 36.3182 37.1416 35.0008C37.5144 33.6834 37.5923 33.2326 37.6254 32.2663C37.6758 30.2011 37.7391 28.6873 38.0922 27.1255C38.2433 26.5212 38.4155 26.121 39.101 26.0936C39.6651 26.0793 40.6966 25.9098 41.1507 26.2624C41.7559 26.7159 41.6802 27.1762 41.6108 28.3875C40.9069 45.6585 46.3244 37.0367 47.9397 30.1332C47.3645 22.327 47.7594 10.7755 52.6636 10.5817C55.2142 10.481 56.3417 12.5191 56.4658 14.0403C56.8166 18.3369 54.8515 25.454 52.2671 30.2403C50.7901 40.0065 58.725 41.9375 59.994 34.1422C57.9179 33.1576 55.6742 29.1724 57.5 27.2303C58.5245 26.1404 62.789 27.7062 62.8588 31.1212C64.9507 30.5632 65.23 29.3851 65.259 29.5804C64.6839 21.7741 65.2173 10.7756 70.1218 10.5818C72.672 10.4811 73.7994 12.5192 73.9235 14.0404C74.2743 18.337 72.3092 25.4542 69.7252 30.2405C68.248 40.0065 76.1831 41.9377 77.4517 34.1424C75.9146 33.8465 72.67 29.6077 74.5421 27.2304C75.5425 25.9601 79.7914 28.6019 80.2671 31.2343C82.2766 30.6671 82.5496 29.5265 82.5784 29.7184C82.0032 21.9125 82.5365 10.9139 87.4411 10.7202C89.9913 10.6194 91.1187 12.6575 91.2428 14.1787C91.5936 18.4753 89.6285 25.5926 87.0441 30.3789C85.5673 40.1451 93.5022 42.0757 94.7711 34.2804C92.6589 33.9297 89.657 29.4541 92.0731 27.1645C93.0383 26.2497 96.7268 28.6244 97.5902 31.3336C98.7898 31.2875 99.5366 30.8748 99.6966 30.8332C97.7815 21.6692 99.2072 10.6737 104.483 10.582C107.335 10.5324 110.123 12.1197 108.899 20.838C107.731 29.1563 103.532 32.6472 103.542 32.7006C103.786 33.6971 105.941 42.0371 111.366 37.6366C111.085 37.0023 110.804 36.3543 110.647 35.5692C109.748 30.9963 111.514 25.8311 116.315 24.9963C119.065 24.5181 121.656 25.8538 122.066 28.8651C122.74 33.7926 118.279 37.3611 116.583 38.1352C115.823 37.7047 123.47 42.5964 128.008 32.7933C128.271 32.2336 128.589 32.281 129 32.5695C129.29 32.7733 130.943 34.3355 130.174 35.6579ZM10.8684 32.961C10.6375 32.2724 10.1637 30.7552 9.9961 30.0978C9.07324 29.2973 8.41453 29.1673 7.22996 29.1673C4.59748 29.1673 3.04804 31.595 3.04804 34.2129C3.04804 36.8305 4.73604 39.2586 7.36854 39.2586C9.6499 39.2586 11.3862 37.7114 11.916 35.5212C11.5452 34.6673 11.1774 33.8826 10.8684 32.961ZM14.4096 14.2357C12.5599 14.2357 11.9324 18.637 12.0542 22.3917C12.1619 25.7114 13.0919 28.6339 13.5743 29.9435C13.6968 30.1076 13.6741 30.0008 13.7834 30.1748C16.9951 23.1557 15.663 14.2357 14.4096 14.2357ZM52.9278 14.3739C50.5371 14.1004 50.5525 24.0341 50.8493 26.2624C52.091 24.2811 54.2478 14.9074 52.9278 14.3739ZM70.3855 14.3739C67.9948 14.1004 68.0102 24.0341 68.3072 26.2624C69.5487 24.2811 71.7057 14.9074 70.3855 14.3739ZM87.7049 14.5121C85.3141 14.2387 85.3295 24.1724 85.6265 26.4008C86.868 24.4193 89.025 15.0456 87.7049 14.5121ZM104.747 13.7924C101.022 14.5385 101.89 26.9261 102.455 29.0987C106.843 23.0878 106.933 13.5666 104.747 13.7924ZM118.707 29.2727C118.517 28.4829 117.57 28.0607 116.917 28.1648C115.047 28.4195 113.233 30.7429 113.935 34.2801C114.091 35.0679 114.482 35.7931 114.476 35.7689C118.661 32.968 119.017 30.7609 118.707 29.2727ZM39.8342 23.3594C39.2997 23.3595 38.7771 23.2015 38.3327 22.9053C37.8882 22.6092 37.5417 22.1882 37.337 21.6956C37.1323 21.2031 37.0788 20.661 37.1831 20.1381C37.2873 19.6152 37.5447 19.1348 37.9227 18.7578C38.3006 18.3807 38.7821 18.1239 39.3064 18.0199C39.8306 17.9159 40.3741 17.9692 40.868 18.1733C41.3619 18.3773 41.7839 18.7229 42.0808 19.1662C42.3778 19.6095 42.5363 20.1307 42.5363 20.6639C42.5363 21.0179 42.4664 21.3684 42.3306 21.6954C42.1949 22.0224 41.9959 22.3195 41.7449 22.5698C41.4939 22.8202 41.1961 23.0187 40.8683 23.1542C40.5405 23.2897 40.1892 23.3594 39.8342 23.3594Z" fill="#999999"></path>
</svg>
