<?xml version="1.0" encoding="UTF-8"?>
<svg xmlns="http://www.w3.org/2000/svg" width="197" height="56" viewBox="0 0 197 56" fill="none">
  <path d="M194.437 23.7249C195.588 24.9476 196.168 26.6053 196.168 28.7057V39.7549H191.896V29.9584C191.896 28.7207 191.547 27.7455 190.848 27.0329C190.15 26.3203 189.206 25.9603 188.01 25.9603C186.598 25.9828 185.476 26.4703 184.652 27.4155C183.827 28.3606 183.411 29.5758 183.411 31.0535V39.7549H179.169V15.2036H183.411V25.4277C184.607 23.1098 186.71 21.9321 189.711 21.8871C191.703 21.8871 193.285 22.4947 194.437 23.7249ZM169.733 25.6902C168.321 25.6902 167.17 26.1778 166.293 27.1454C165.416 28.1206 164.97 29.3733 164.97 30.9185C164.97 32.5088 165.416 33.784 166.293 34.7591C167.177 35.7268 168.321 36.2144 169.74 36.2144C171.828 36.2144 173.396 35.5167 174.443 34.129L177.088 36.3494C176.308 37.4971 175.238 38.4122 173.99 38.9973C172.705 39.6124 171.219 39.9199 169.517 39.9199C167.801 39.9199 166.271 39.5449 164.933 38.7948C163.618 38.0671 162.533 36.9645 161.82 35.6368C161.077 34.2791 160.706 32.7188 160.706 30.956C160.706 29.1707 161.085 27.588 161.835 26.2228C162.556 24.8801 163.648 23.7849 164.97 23.0498C166.308 22.2997 167.846 21.9246 169.592 21.9246C171.182 21.9246 172.601 22.2022 173.849 22.7648C175.097 23.3273 176.115 24.13 176.903 25.1651L174.324 27.648C173.128 26.3428 171.605 25.6902 169.733 25.6902ZM157.994 22.0521V39.7549H153.751V36.942C153.15 37.8871 152.31 38.6597 151.322 39.1773C150.334 39.6949 149.197 39.9574 147.912 39.9574C146.255 39.9574 144.806 39.5749 143.55 38.8173C142.302 38.0596 141.321 36.987 140.63 35.6068C139.939 34.2265 139.59 32.6438 139.59 30.8585C139.59 29.0957 139.939 27.5355 140.638 26.1778C141.329 24.8201 142.31 23.7699 143.558 23.0198C144.806 22.2697 146.247 21.8946 147.882 21.8946C149.167 21.8946 150.311 22.1572 151.307 22.6747C152.303 23.1923 153.15 23.9574 153.751 24.9101V22.0671L157.994 22.0521ZM152.213 35.0367C153.105 34.1665 153.618 33.0114 153.751 31.5786V30.3259C153.618 28.8857 153.112 27.738 152.221 26.8679C151.329 25.9978 150.2 25.5627 148.825 25.5627C147.369 25.5627 146.18 26.0653 145.267 27.0704C144.353 28.0756 143.885 29.3733 143.862 30.956C143.885 32.5463 144.353 33.8365 145.267 34.8416C146.18 35.8468 147.369 36.3494 148.825 36.3494C150.193 36.3494 151.322 35.9143 152.213 35.0367ZM135.318 24.3325C136.722 25.9452 137.421 28.2031 137.421 31.1136C137.421 31.6836 137.406 32.1187 137.391 32.4038H124.5C124.783 33.664 125.362 34.6466 126.246 35.3667C127.123 36.0868 128.208 36.4394 129.493 36.4394C130.37 36.4394 131.247 36.2669 132.057 35.9218C132.866 35.5918 133.594 35.0892 134.196 34.4516L136.477 36.867C135.593 37.8496 134.508 38.6147 133.29 39.1173C132.042 39.6499 130.652 39.9124 129.129 39.9124C127.346 39.9124 125.771 39.5374 124.411 38.7873C123.081 38.0671 121.982 36.9645 121.261 35.6293C120.518 34.2715 120.154 32.7113 120.154 30.9485C120.154 29.1858 120.526 27.618 121.283 26.2528C122.011 24.9101 123.104 23.7999 124.434 23.0573C125.786 22.2922 127.316 21.9171 129.033 21.9171C131.819 21.9171 133.914 22.7272 135.318 24.3325ZM133.542 29.5308C133.498 28.2256 133.074 27.1904 132.272 26.4178C131.47 25.6452 130.4 25.2551 129.07 25.2551C127.829 25.2551 126.789 25.6377 125.949 26.3953C125.11 27.1529 124.597 28.1956 124.396 29.5233H133.542V29.5308ZM115.54 22.8323C116.551 22.2247 117.732 21.9096 119.084 21.8871V26.0578C117.279 25.9452 115.837 26.3728 114.76 27.333C113.683 28.2931 113.14 29.5908 113.14 31.2186V39.7549H108.898V22.0521H113.14V25.4577C113.735 24.31 114.53 23.4324 115.54 22.8323ZM105.718 38.6597C104.329 39.5224 102.865 39.9499 101.342 39.9499C99.8411 39.9499 98.6077 39.4999 97.6567 38.6072C96.6983 37.7146 96.2228 36.3944 96.2228 34.6541V17.9115L100.435 17.4014V22.7723H105.428V25.9152H100.435V33.8965C100.435 34.7141 100.584 35.2917 100.889 35.6293C101.193 35.9743 101.647 36.1393 102.256 36.1393C102.91 36.1393 103.734 35.8993 104.737 35.4117L105.718 38.6597ZM88.3621 22.0521H92.5748V31.9762C92.5748 37.7671 88.585 39.9199 84.5358 39.9199C80.4866 39.9199 76.5042 37.7671 76.5042 31.9762V22.0521H80.7169V32.1262C80.7169 34.3466 82.3514 36.1468 84.5432 36.1468C86.735 36.1468 88.3695 34.3466 88.3695 32.1262L88.3621 22.0521ZM67.7743 17.8515C69.5945 18.8491 71.1102 20.3269 72.1652 22.1196C73.2351 23.9274 73.7626 25.9377 73.7626 28.1431C73.7626 30.3484 73.2277 32.3587 72.1652 34.1815C71.1102 35.9893 69.5945 37.482 67.7743 38.5022C65.9094 39.5599 63.8513 40.0925 61.5853 40.0925C59.3192 40.0925 57.2611 39.5599 55.4037 38.5022C53.5834 37.482 52.0677 35.9893 51.0127 34.1815C49.9503 32.3587 49.4153 30.3484 49.4153 28.1431C49.4153 25.9377 49.9503 23.9274 51.0127 22.1196C52.0677 20.3194 53.5834 18.8491 55.4037 17.8515C57.2611 16.8163 59.3266 16.2987 61.5853 16.2987C63.8513 16.2912 65.9168 16.8088 67.7743 17.8515ZM57.7738 21.3095C56.5925 21.9846 55.6117 22.9673 54.9356 24.1525C54.2372 25.3602 53.888 26.6879 53.888 28.1431C53.888 29.5983 54.2447 30.9335 54.9505 32.1487C55.634 33.3414 56.6148 34.3316 57.7887 35.0292C58.9774 35.7343 60.2628 36.0868 61.6596 36.0868C63.0043 36.0943 64.3268 35.7268 65.4785 35.0292C66.6449 34.3316 67.6034 33.3414 68.272 32.1487C68.963 30.926 69.3122 29.5458 69.2973 28.1431C69.2973 26.6879 68.9556 25.3602 68.272 24.1525C67.6108 22.9748 66.6449 21.9921 65.4785 21.3095C64.3194 20.6194 63.0043 20.2594 61.6596 20.2669C60.2925 20.2594 58.9551 20.6194 57.7738 21.3095ZM17.4451 6.36719C23.4557 6.36719 32.5349 8.23498 36.755 12.5181C37.8249 13.6058 39.2291 15.7287 39.2291 18.8491C39.2291 24.385 34.8233 32.8838 29.9642 37.8196C27.453 40.37 23.4557 43.7005 18.0766 43.7005C12.8163 43.7005 8.80426 40.085 7.64522 38.8998C3.18737 34.3841 0 27.528 0 21.1445C0 17.1089 1.13675 13.5833 4.02693 10.6504C6.70164 7.94243 11.3155 6.36719 17.4451 6.36719ZM24.8823 28.4581C26.9106 26.4028 27.4604 23.8674 27.4604 22.4722C27.4604 21.4595 27.2003 19.9818 25.9521 18.7141C24.0427 16.7713 21.9178 16.2237 19.6146 16.2237C16.6947 16.2237 14.7332 17.1614 13.4256 18.4816C12.4003 19.5317 11.5161 21.122 11.5161 23.3948C11.5161 25.6602 12.7123 27.8505 14.0051 29.1708C15.2087 30.3859 17.0959 31.2861 18.9905 31.2861C20.8925 31.2861 22.8539 30.5135 24.8823 28.4581Z" fill="#999999"></path>
</svg>
