<?xml version="1.0" encoding="UTF-8"?>
<svg xmlns="http://www.w3.org/2000/svg" width="165" height="56" viewBox="0 0 165 56" fill="none">
  <path d="M163.301 21.2165C163.301 20.5858 162.857 20.1654 162.126 20.1654L160.688 20.1916L160.715 23.3975H161.498V22.2938H161.969L162.648 23.3975H163.563L162.753 22.1624C162.92 22.0689 163.06 21.9317 163.156 21.7652C163.253 21.5987 163.303 21.4092 163.301 21.2165ZM161.969 21.6369H161.472V20.8223H162.047C162.151 20.8109 162.255 20.84 162.337 20.9036C162.42 20.9672 162.475 21.0605 162.491 21.1639V21.1902C162.489 21.2551 162.474 21.3189 162.446 21.3775C162.418 21.4361 162.378 21.4881 162.329 21.5301C162.279 21.5722 162.222 21.6035 162.16 21.6219C162.098 21.6403 162.033 21.6454 161.969 21.6369ZM46.064 36.0369C44.7315 36.0369 43.817 34.9858 43.817 33.4354V26.3668H49.3039V21.3741H43.8301L43.7778 15.6457H37.7161L37.7683 34.723C37.7683 38.5858 40.3289 41.2135 44.0913 41.2135C46.0771 41.2135 47.9583 40.9245 49.4476 40.2413V35.3799C48.39 35.8735 47.2283 36.0991 46.064 36.0369ZM60.539 21.0588C54.8954 21.0588 50.5581 25.4734 50.5581 31.3332C50.5581 37.1405 54.8954 41.1872 60.8787 41.1872C64.2493 41.1872 67.4108 39.9785 69.3442 37.4821L64.6934 35.3537C63.7528 36.2208 62.3158 36.5624 61.0355 36.5624C58.9452 36.5624 56.855 35.4851 56.5676 33.2778H70.4416C70.6501 32.489 70.7555 31.6764 70.7552 30.8602C70.7552 24.8427 66.3918 21.0588 60.5521 21.0588H60.539ZM56.5676 29.415C56.7505 26.7873 58.6317 25.5785 60.6958 25.5785C63.0212 25.5785 64.7718 26.8924 64.7718 29.1522V29.415H56.5676ZM31.9548 36.0369C30.6223 36.0369 29.7078 34.9858 29.7078 33.4354V26.3668H35.1947V21.3741H29.7208L29.6686 15.6457H23.6068L23.6591 34.723C23.6591 38.5858 26.2197 41.2135 29.9821 41.2135C31.9679 41.2135 33.8491 40.9245 35.3384 40.2413V35.3799C34.2816 35.8759 33.1193 36.1016 31.9548 36.0369ZM10.6603 21.0588C5.4608 21.0588 0 24.5011 0 31.4383C0 37.2194 3.86697 41.2661 8.75295 41.2661C11.5487 41.2661 13.6651 40.1361 15.0498 38.1391L15.2327 40.9245H21.0985V31.6748C21.0985 24.6325 15.9382 21.0588 10.6603 21.0588ZM10.6603 35.9318C8.02136 35.9318 6.114 33.961 6.114 31.1756C6.114 28.3902 7.99523 26.4194 10.6603 26.4194C13.1164 26.4194 15.1544 28.5741 15.1544 31.1756C15.1544 33.777 13.1164 35.9318 10.6603 35.9318ZM161.838 18.7201C159.931 18.7464 158.703 19.9814 158.729 21.8208C158.755 23.6603 160.009 24.869 161.916 24.8427C163.772 24.8165 165.026 23.5814 165 21.7157C164.973 19.85 163.719 18.6938 161.838 18.7201ZM161.916 24.3172C160.427 24.3435 159.408 23.3449 159.408 21.8208C159.408 20.2968 160.375 19.2719 161.864 19.2457C163.354 19.2194 164.346 20.2179 164.373 21.7683C164.373 23.2661 163.38 24.2909 161.93 24.3172H161.916ZM132.209 21.4004L127.976 33.7507L123.691 21.4004H117.107L124.997 40.8982H130.902L138.793 21.4004H132.209ZM147.912 21.0588C142.268 21.0588 137.931 25.4734 137.931 31.3332C137.931 37.1405 142.268 41.1872 148.251 41.1872C151.622 41.1872 154.783 39.9785 156.717 37.4821L152.066 35.3537C151.126 36.2208 149.688 36.5624 148.408 36.5624C146.318 36.5624 144.228 35.4851 143.94 33.2778H157.814C158.023 32.489 158.128 31.6764 158.128 30.8602C158.128 24.8427 153.764 21.0588 147.912 21.0588ZM152.145 29.415H143.94C144.123 26.7873 146.004 25.5785 148.069 25.5785C150.394 25.5785 152.145 26.8924 152.145 29.1522V29.415ZM112.43 12.834C110.287 12.834 108.667 14.2792 108.667 16.3026C108.667 18.326 110.287 19.8238 112.43 19.8238C114.572 19.8238 116.192 18.3522 116.192 16.3026C116.192 14.253 114.598 12.834 112.43 12.834ZM84.9167 21.0325C83.6916 21.0126 82.4823 21.3119 81.4063 21.9013C80.3303 22.4907 79.4244 23.3501 78.7765 24.396L78.5675 21.4004H72.7148V40.8982H78.7765V30.6763C78.9072 28.2325 80.8668 26.3668 83.0093 26.3668C85.4131 26.3668 86.5105 28.18 86.5105 30.4661V40.8719H92.5461V29.5201C92.5461 24.58 89.5544 21.0325 84.9167 21.0325ZM103.415 36.0369C102.083 36.0369 101.168 34.9858 101.168 33.4354V26.3668H106.655V21.3741H101.168L101.116 15.6457H95.0544L95.1067 34.723C95.1067 38.5858 97.6672 41.2135 101.43 41.2135C103.415 41.2135 105.297 40.9245 106.786 40.2413V35.3799C105.733 35.8738 104.576 36.0994 103.415 36.0369ZM109.373 21.4004V40.8982H115.487V21.4004C114.58 22.0045 113.517 22.3266 112.43 22.3266C111.342 22.3266 110.279 22.0045 109.373 21.4004Z" fill="#999999"></path>
</svg>
