<?xml version="1.0" encoding="UTF-8"?>
<svg xmlns="http://www.w3.org/2000/svg" width="117" height="38" viewBox="0 0 117 38" fill="none">
  <path d="M46.3037 30.1341V4.29405H51.4862V30.1341H46.3037ZM50.1144 30.1341V25.6865H63.7567V30.1341H50.1144Z" fill="black"></path>
  <path d="M74.1959 30.5016C72.5192 30.5016 71.0076 30.0973 69.6612 29.2886C68.3147 28.48 67.2604 27.3773 66.4983 25.9805C65.7361 24.5838 65.3551 23.0155 65.3551 21.2757C65.3551 19.5114 65.7361 17.9308 66.4983 16.5341C67.2604 15.1373 68.3147 14.0346 69.6612 13.2259C71.0076 12.4173 72.5192 12.013 74.1959 12.013C75.5169 12.013 76.6982 12.2703 77.7398 12.7849C78.7814 13.2995 79.6071 14.0223 80.2168 14.9535C80.8519 15.8602 81.1948 16.8894 81.2457 18.0411V24.4368C81.1948 25.613 80.8519 26.6544 80.2168 27.5611C79.6071 28.4677 78.7814 29.1906 77.7398 29.7297C76.6982 30.2443 75.5169 30.5016 74.1959 30.5016ZM75.1104 26.0541C76.5077 26.0541 77.6382 25.613 78.502 24.7308C79.3657 23.8241 79.7976 22.6602 79.7976 21.2389C79.7976 20.3077 79.5944 19.4868 79.1879 18.7762C78.8068 18.0411 78.2606 17.4775 77.5493 17.0854C76.8634 16.6688 76.0504 16.4605 75.1104 16.4605C74.1959 16.4605 73.3829 16.6688 72.6716 17.0854C71.9857 17.4775 71.4395 18.0411 71.033 18.7762C70.6519 19.4868 70.4614 20.3077 70.4614 21.2389C70.4614 22.1946 70.6519 23.04 71.033 23.7751C71.4395 24.4858 71.9857 25.0494 72.6716 25.4659C73.3829 25.858 74.1959 26.0541 75.1104 26.0541ZM79.5308 30.1341V25.3557L80.3311 21.0184L79.5308 16.7546V12.3805H84.4847V30.1341H79.5308Z" fill="black"></path>
  <path d="M96.5986 38C94.6424 38 92.9149 37.6569 91.416 36.9708C89.9172 36.3092 88.7231 35.3658 87.834 34.1405L90.9969 31.0897C91.7082 31.8984 92.4957 32.511 93.3595 32.9276C94.2486 33.3686 95.3156 33.5892 96.5605 33.5892C98.1101 33.5892 99.3296 33.2094 100.219 32.4497C101.133 31.6901 101.591 30.6364 101.591 29.2886V24.8411L102.429 20.9449L101.629 17.0486V12.3805H106.583V29.2151C106.583 30.9795 106.151 32.511 105.287 33.8097C104.449 35.133 103.28 36.1622 101.781 36.8973C100.282 37.6324 98.5547 38 96.5986 38ZM96.3699 29.6562C94.7186 29.6562 93.2325 29.2764 91.9114 28.5168C90.5904 27.7326 89.5488 26.6667 88.7867 25.3189C88.0499 23.9712 87.6816 22.4641 87.6816 20.7978C87.6816 19.1315 88.0499 17.6368 88.7867 16.3135C89.5488 14.9903 90.5904 13.9488 91.9114 13.1892C93.2325 12.405 94.7186 12.013 96.3699 12.013C97.7418 12.013 98.9485 12.2703 99.9901 12.7849C101.057 13.2995 101.895 14.0101 102.505 14.9168C103.115 15.7989 103.445 16.8404 103.496 18.0411V23.6281C103.445 24.8043 103.102 25.858 102.467 26.7892C101.857 27.6959 101.019 28.4065 99.952 28.9211C98.9104 29.4112 97.7164 29.6562 96.3699 29.6562ZM97.3607 25.2822C98.2753 25.2822 99.0628 25.0984 99.7233 24.7308C100.409 24.3387 100.943 23.8119 101.324 23.1503C101.705 22.4641 101.895 21.6923 101.895 20.8346C101.895 19.9524 101.705 19.1805 101.324 18.5189C100.943 17.8573 100.409 17.3427 99.7233 16.9751C99.0628 16.5831 98.2753 16.387 97.3607 16.387C96.4461 16.387 95.6459 16.5831 94.96 16.9751C94.274 17.3427 93.7406 17.8695 93.3595 18.5557C92.9784 19.2173 92.7879 19.9769 92.7879 20.8346C92.7879 21.6677 92.9784 22.4274 93.3595 23.1135C93.7406 23.7751 94.274 24.302 94.96 24.6941C95.6459 25.0861 96.4461 25.2822 97.3607 25.2822Z" fill="black"></path>
  <path d="M110.969 30.1341V12.3805H115.999V30.1341H110.969ZM113.484 9.51351C112.671 9.51351 111.998 9.25622 111.464 8.74162C110.931 8.20252 110.664 7.5409 110.664 6.75676C110.664 5.99712 110.931 5.34775 111.464 4.80865C111.998 4.26955 112.671 4 113.484 4C114.322 4 114.995 4.26955 115.503 4.80865C116.037 5.34775 116.304 5.99712 116.304 6.75676C116.304 7.5409 116.037 8.20252 115.503 8.74162C114.995 9.25622 114.322 9.51351 113.484 9.51351Z" fill="black"></path>
  <g clip-path="url(#clip0_6015_3116)">
    <path d="M33.3479 15.6767C32.8207 6.96568 25.6151 0.0660058 16.7904 0.0117188H16.5951C13.4747 0.0325984 10.5599 0.898059 8.06894 2.4087C5.76904 3.79615 3.8335 5.72543 2.43039 8.02115C1.06069 10.272 0.205664 12.8767 0.0323634 15.6662C0.0114838 16.0087 0 16.3511 0 16.705C0 17.0526 0.0167037 17.4013 0.0323634 17.7438C0.206708 20.5333 1.05547 23.1317 2.43039 25.3826C3.82202 27.6783 5.75338 29.6034 8.03553 31.0002C10.5369 32.4952 13.4569 33.3711 16.5669 33.392H16.8175C25.6485 33.3325 32.8197 26.4485 33.3698 17.749C33.3855 17.4118 33.4126 17.0589 33.4126 16.7269C33.4126 16.3887 33.4126 16.0368 33.3845 15.7038L33.3521 15.6714L33.3479 15.6767ZM16.7089 21.7725V27.101C16.8394 30.3582 15.9155 30.9011 14.8005 30.9501C14.7515 30.9501 14.7076 30.9553 14.6586 30.9553C8.31949 30.0586 3.30525 25.0339 2.43039 18.6781C2.34374 18.0308 2.29363 17.3721 2.29363 16.6987C2.29363 16.0306 2.34374 15.3718 2.43039 14.7246C3.30003 8.38028 8.30279 3.35455 14.6439 2.44733L14.8016 2.46403C15.9165 2.5225 16.8405 3.06119 16.71 6.30693V11.6354C16.6933 13.8278 17.9544 15.9157 19.2917 16.7039C17.9544 17.4859 16.6933 19.3139 16.71 21.7662L16.7089 21.7725Z" fill="url(#paint0_linear_6015_3116)"></path>
  </g>
  <defs>
    <linearGradient id="paint0_linear_6015_3116" x1="0" y1="16.4958" x2="33.4126" y2="16.4958" gradientUnits="userSpaceOnUse">
      <stop stop-color="#F15EE5"></stop>
      <stop offset="1" stop-color="#FF7E89"></stop>
    </linearGradient>
    <clipPath id="clip0_6015_3116">
      <rect width="33.4074" height="33.4074" fill="white"></rect>
    </clipPath>
  </defs>
</svg>
